G04 #@! TF.GenerationSoftware,KiCad,Pcbnew,9.0.1*
G04 #@! TF.CreationDate,2025-10-16T18:55:10-04:00*
G04 #@! TF.ProjectId,button backpack,62757474-6f6e-4206-9261-636b7061636b,rev?*
G04 #@! TF.SameCoordinates,Original*
G04 #@! TF.FileFunction,Soldermask,Bot*
G04 #@! TF.FilePolarity,Negative*
%FSLAX46Y46*%
G04 Gerber Fmt 4.6, Leading zero omitted, Abs format (unit mm)*
G04 Created by KiCad (PCBNEW 9.0.1) date 2025-10-16 18:55:10*
%MOMM*%
%LPD*%
G01*
G04 APERTURE LIST*
G04 Aperture macros list*
%AMRoundRect*
0 Rectangle with rounded corners*
0 $1 Rounding radius*
0 $2 $3 $4 $5 $6 $7 $8 $9 X,Y pos of 4 corners*
0 Add a 4 corners polygon primitive as box body*
4,1,4,$2,$3,$4,$5,$6,$7,$8,$9,$2,$3,0*
0 Add four circle primitives for the rounded corners*
1,1,$1+$1,$2,$3*
1,1,$1+$1,$4,$5*
1,1,$1+$1,$6,$7*
1,1,$1+$1,$8,$9*
0 Add four rect primitives between the rounded corners*
20,1,$1+$1,$2,$3,$4,$5,0*
20,1,$1+$1,$4,$5,$6,$7,0*
20,1,$1+$1,$6,$7,$8,$9,0*
20,1,$1+$1,$8,$9,$2,$3,0*%
G04 Aperture macros list end*
%ADD10R,1.700000X1.700000*%
%ADD11C,1.700000*%
%ADD12C,1.600000*%
%ADD13C,2.379000*%
%ADD14RoundRect,0.102000X-0.754000X-0.754000X0.754000X-0.754000X0.754000X0.754000X-0.754000X0.754000X0*%
%ADD15C,1.712000*%
G04 APERTURE END LIST*
D10*
X121700000Y-63100000D03*
D11*
X121700000Y-65640000D03*
X121700000Y-68180000D03*
X121700000Y-70720000D03*
X121700000Y-73260000D03*
X121700000Y-75800000D03*
X121700000Y-78340000D03*
D12*
X127340000Y-92000000D03*
X137500000Y-92000000D03*
X124500000Y-91080000D03*
X124500000Y-80920000D03*
D13*
X122020850Y-87790000D03*
X122020850Y-82710000D03*
D10*
X139300000Y-63100000D03*
D11*
X139300000Y-65640000D03*
X139300000Y-68180000D03*
X139300000Y-70720000D03*
X139300000Y-73260000D03*
X139300000Y-75800000D03*
X139300000Y-78340000D03*
D12*
X124500000Y-68420000D03*
X124500000Y-78580000D03*
D14*
X127250000Y-76875000D03*
D15*
X133750000Y-76875000D03*
X127250000Y-81375000D03*
X133750000Y-81375000D03*
D13*
X138979150Y-82710000D03*
X138979150Y-87790000D03*
D14*
X127250000Y-69250000D03*
D15*
X133750000Y-69250000D03*
X127250000Y-73750000D03*
X133750000Y-73750000D03*
D12*
X125420000Y-63500000D03*
X135580000Y-63500000D03*
X136500000Y-89080000D03*
X136500000Y-78920000D03*
D14*
X127250000Y-84500000D03*
D15*
X133750000Y-84500000D03*
X127250000Y-89000000D03*
X133750000Y-89000000D03*
D12*
X136500000Y-66500000D03*
X136500000Y-76660000D03*
M02*
