G04 #@! TF.GenerationSoftware,KiCad,Pcbnew,9.0.1*
G04 #@! TF.CreationDate,2025-10-16T18:55:29-04:00*
G04 #@! TF.ProjectId,button backpack,62757474-6f6e-4206-9261-636b7061636b,rev?*
G04 #@! TF.SameCoordinates,Original*
G04 #@! TF.FileFunction,Copper,L2,Bot*
G04 #@! TF.FilePolarity,Positive*
%FSLAX46Y46*%
G04 Gerber Fmt 4.6, Leading zero omitted, Abs format (unit mm)*
G04 Created by KiCad (PCBNEW 9.0.1) date 2025-10-16 18:55:29*
%MOMM*%
%LPD*%
G01*
G04 APERTURE LIST*
G04 #@! TA.AperFunction,ComponentPad*
%ADD10R,1.700000X1.700000*%
G04 #@! TD*
G04 #@! TA.AperFunction,ComponentPad*
%ADD11C,1.700000*%
G04 #@! TD*
G04 #@! TA.AperFunction,ComponentPad*
%ADD12C,1.600000*%
G04 #@! TD*
G04 #@! TA.AperFunction,ComponentPad*
%ADD13C,2.175000*%
G04 #@! TD*
G04 #@! TA.AperFunction,ComponentPad*
%ADD14R,1.508000X1.508000*%
G04 #@! TD*
G04 #@! TA.AperFunction,ComponentPad*
%ADD15C,1.508000*%
G04 #@! TD*
G04 #@! TA.AperFunction,Conductor*
%ADD16C,0.600000*%
G04 #@! TD*
G04 APERTURE END LIST*
D10*
X121700000Y-63100000D03*
D11*
X121700000Y-65640000D03*
X121700000Y-68180000D03*
X121700000Y-70720000D03*
X121700000Y-73260000D03*
X121700000Y-75800000D03*
X121700000Y-78340000D03*
D12*
X127340000Y-92000000D03*
X137500000Y-92000000D03*
X124500000Y-91080000D03*
X124500000Y-80920000D03*
D13*
X122020850Y-87790000D03*
X122020850Y-82710000D03*
D10*
X139300000Y-63100000D03*
D11*
X139300000Y-65640000D03*
X139300000Y-68180000D03*
X139300000Y-70720000D03*
X139300000Y-73260000D03*
X139300000Y-75800000D03*
X139300000Y-78340000D03*
D12*
X124500000Y-68420000D03*
X124500000Y-78580000D03*
D14*
X127250000Y-76875000D03*
D15*
X133750000Y-76875000D03*
X127250000Y-81375000D03*
X133750000Y-81375000D03*
D13*
X138979150Y-82710000D03*
X138979150Y-87790000D03*
D14*
X127250000Y-69250000D03*
D15*
X133750000Y-69250000D03*
X127250000Y-73750000D03*
X133750000Y-73750000D03*
D12*
X125420000Y-63500000D03*
X135580000Y-63500000D03*
X136500000Y-89080000D03*
X136500000Y-78920000D03*
D14*
X127250000Y-84500000D03*
D15*
X133750000Y-84500000D03*
X127250000Y-89000000D03*
X133750000Y-89000000D03*
D12*
X136500000Y-66500000D03*
X136500000Y-76660000D03*
D16*
X129000000Y-75125000D02*
X127250000Y-76875000D01*
X127250000Y-69250000D02*
X129000000Y-71000000D01*
X136300000Y-71000000D02*
X132750000Y-71000000D01*
X131000000Y-69250000D02*
X127250000Y-69250000D01*
X139260000Y-68040000D02*
X136300000Y-71000000D01*
X132750000Y-71000000D02*
X131000000Y-69250000D01*
X129000000Y-71000000D02*
X129000000Y-75125000D01*
X129000000Y-78625000D02*
X129000000Y-82750000D01*
X139500000Y-68040000D02*
X139260000Y-68040000D01*
X127250000Y-76875000D02*
X129000000Y-78625000D01*
X129000000Y-82750000D02*
X127250000Y-84500000D01*
X136500000Y-76660000D02*
X136500000Y-76500000D01*
X136500000Y-76500000D02*
X133750000Y-73750000D01*
X125800000Y-89780000D02*
X125800000Y-68300000D01*
X129420000Y-63500000D02*
X124500000Y-68420000D01*
X125800000Y-68300000D02*
X130500000Y-63600000D01*
X130500000Y-63600000D02*
X130500000Y-63500000D01*
X135580000Y-63500000D02*
X132000000Y-63500000D01*
X124500000Y-91080000D02*
X125800000Y-89780000D01*
X132000000Y-63500000D02*
X130500000Y-63500000D01*
X130500000Y-63500000D02*
X129420000Y-63500000D01*
X137500000Y-92000000D02*
X136750000Y-92000000D01*
X136750000Y-92000000D02*
X133750000Y-89000000D01*
M02*
