G04 #@! TF.GenerationSoftware,KiCad,Pcbnew,9.0.1*
G04 #@! TF.CreationDate,2025-10-16T18:55:29-04:00*
G04 #@! TF.ProjectId,button backpack,62757474-6f6e-4206-9261-636b7061636b,rev?*
G04 #@! TF.SameCoordinates,Original*
G04 #@! TF.FileFunction,Legend,Bot*
G04 #@! TF.FilePolarity,Positive*
%FSLAX46Y46*%
G04 Gerber Fmt 4.6, Leading zero omitted, Abs format (unit mm)*
G04 Created by KiCad (PCBNEW 9.0.1) date 2025-10-16 18:55:29*
%MOMM*%
%LPD*%
G01*
G04 APERTURE LIST*
G04 Aperture macros list*
%AMRoundRect*
0 Rectangle with rounded corners*
0 $1 Rounding radius*
0 $2 $3 $4 $5 $6 $7 $8 $9 X,Y pos of 4 corners*
0 Add a 4 corners polygon primitive as box body*
4,1,4,$2,$3,$4,$5,$6,$7,$8,$9,$2,$3,0*
0 Add four circle primitives for the rounded corners*
1,1,$1+$1,$2,$3*
1,1,$1+$1,$4,$5*
1,1,$1+$1,$6,$7*
1,1,$1+$1,$8,$9*
0 Add four rect primitives between the rounded corners*
20,1,$1+$1,$2,$3,$4,$5,0*
20,1,$1+$1,$4,$5,$6,$7,0*
20,1,$1+$1,$6,$7,$8,$9,0*
20,1,$1+$1,$8,$9,$2,$3,0*%
G04 Aperture macros list end*
%ADD10C,0.100000*%
%ADD11R,1.700000X1.700000*%
%ADD12C,1.700000*%
%ADD13C,1.600000*%
%ADD14C,2.379000*%
%ADD15RoundRect,0.102000X-0.754000X-0.754000X0.754000X-0.754000X0.754000X0.754000X-0.754000X0.754000X0*%
%ADD16C,1.712000*%
G04 APERTURE END LIST*
D10*
X132237524Y-81588972D02*
X131237524Y-81255639D01*
X131237524Y-81255639D02*
X132237524Y-80922306D01*
X131523239Y-80636591D02*
X131523239Y-80160401D01*
X131237524Y-80731829D02*
X132237524Y-80398496D01*
X132237524Y-80398496D02*
X131237524Y-80065163D01*
X131237524Y-79731829D02*
X132237524Y-79731829D01*
X131237524Y-78779449D02*
X131237524Y-79255639D01*
X131237524Y-79255639D02*
X132237524Y-79255639D01*
X131761334Y-77350877D02*
X131713715Y-77208020D01*
X131713715Y-77208020D02*
X131666096Y-77160401D01*
X131666096Y-77160401D02*
X131570858Y-77112782D01*
X131570858Y-77112782D02*
X131428001Y-77112782D01*
X131428001Y-77112782D02*
X131332763Y-77160401D01*
X131332763Y-77160401D02*
X131285144Y-77208020D01*
X131285144Y-77208020D02*
X131237524Y-77303258D01*
X131237524Y-77303258D02*
X131237524Y-77684210D01*
X131237524Y-77684210D02*
X132237524Y-77684210D01*
X132237524Y-77684210D02*
X132237524Y-77350877D01*
X132237524Y-77350877D02*
X132189905Y-77255639D01*
X132189905Y-77255639D02*
X132142286Y-77208020D01*
X132142286Y-77208020D02*
X132047048Y-77160401D01*
X132047048Y-77160401D02*
X131951810Y-77160401D01*
X131951810Y-77160401D02*
X131856572Y-77208020D01*
X131856572Y-77208020D02*
X131808953Y-77255639D01*
X131808953Y-77255639D02*
X131761334Y-77350877D01*
X131761334Y-77350877D02*
X131761334Y-77684210D01*
X131237524Y-75922305D02*
X132237524Y-75922305D01*
X131761334Y-75922305D02*
X131761334Y-75350877D01*
X131237524Y-75350877D02*
X132237524Y-75350877D01*
X131523239Y-74922305D02*
X131523239Y-74446115D01*
X131237524Y-75017543D02*
X132237524Y-74684210D01*
X132237524Y-74684210D02*
X131237524Y-74350877D01*
X132237524Y-74160400D02*
X132237524Y-73588972D01*
X131237524Y-73874686D02*
X132237524Y-73874686D01*
X129627580Y-81446115D02*
X130627580Y-81446115D01*
X130627580Y-81446115D02*
X130627580Y-81065163D01*
X130627580Y-81065163D02*
X130579961Y-80969925D01*
X130579961Y-80969925D02*
X130532342Y-80922306D01*
X130532342Y-80922306D02*
X130437104Y-80874687D01*
X130437104Y-80874687D02*
X130294247Y-80874687D01*
X130294247Y-80874687D02*
X130199009Y-80922306D01*
X130199009Y-80922306D02*
X130151390Y-80969925D01*
X130151390Y-80969925D02*
X130103771Y-81065163D01*
X130103771Y-81065163D02*
X130103771Y-81446115D01*
X129627580Y-79874687D02*
X130103771Y-80208020D01*
X129627580Y-80446115D02*
X130627580Y-80446115D01*
X130627580Y-80446115D02*
X130627580Y-80065163D01*
X130627580Y-80065163D02*
X130579961Y-79969925D01*
X130579961Y-79969925D02*
X130532342Y-79922306D01*
X130532342Y-79922306D02*
X130437104Y-79874687D01*
X130437104Y-79874687D02*
X130294247Y-79874687D01*
X130294247Y-79874687D02*
X130199009Y-79922306D01*
X130199009Y-79922306D02*
X130151390Y-79969925D01*
X130151390Y-79969925D02*
X130103771Y-80065163D01*
X130103771Y-80065163D02*
X130103771Y-80446115D01*
X130627580Y-79255639D02*
X130627580Y-79065163D01*
X130627580Y-79065163D02*
X130579961Y-78969925D01*
X130579961Y-78969925D02*
X130484723Y-78874687D01*
X130484723Y-78874687D02*
X130294247Y-78827068D01*
X130294247Y-78827068D02*
X129960914Y-78827068D01*
X129960914Y-78827068D02*
X129770438Y-78874687D01*
X129770438Y-78874687D02*
X129675200Y-78969925D01*
X129675200Y-78969925D02*
X129627580Y-79065163D01*
X129627580Y-79065163D02*
X129627580Y-79255639D01*
X129627580Y-79255639D02*
X129675200Y-79350877D01*
X129675200Y-79350877D02*
X129770438Y-79446115D01*
X129770438Y-79446115D02*
X129960914Y-79493734D01*
X129960914Y-79493734D02*
X130294247Y-79493734D01*
X130294247Y-79493734D02*
X130484723Y-79446115D01*
X130484723Y-79446115D02*
X130579961Y-79350877D01*
X130579961Y-79350877D02*
X130627580Y-79255639D01*
X130627580Y-78541353D02*
X130627580Y-77969925D01*
X129627580Y-78255639D02*
X130627580Y-78255639D01*
X130627580Y-77446115D02*
X130627580Y-77255639D01*
X130627580Y-77255639D02*
X130579961Y-77160401D01*
X130579961Y-77160401D02*
X130484723Y-77065163D01*
X130484723Y-77065163D02*
X130294247Y-77017544D01*
X130294247Y-77017544D02*
X129960914Y-77017544D01*
X129960914Y-77017544D02*
X129770438Y-77065163D01*
X129770438Y-77065163D02*
X129675200Y-77160401D01*
X129675200Y-77160401D02*
X129627580Y-77255639D01*
X129627580Y-77255639D02*
X129627580Y-77446115D01*
X129627580Y-77446115D02*
X129675200Y-77541353D01*
X129675200Y-77541353D02*
X129770438Y-77636591D01*
X129770438Y-77636591D02*
X129960914Y-77684210D01*
X129960914Y-77684210D02*
X130294247Y-77684210D01*
X130294247Y-77684210D02*
X130484723Y-77636591D01*
X130484723Y-77636591D02*
X130579961Y-77541353D01*
X130579961Y-77541353D02*
X130627580Y-77446115D01*
X130627580Y-76731829D02*
X130627580Y-76160401D01*
X129627580Y-76446115D02*
X130627580Y-76446115D01*
X130103771Y-75636591D02*
X129627580Y-75636591D01*
X130627580Y-75969924D02*
X130103771Y-75636591D01*
X130103771Y-75636591D02*
X130627580Y-75303258D01*
X129627580Y-74969924D02*
X130627580Y-74969924D01*
X130627580Y-74969924D02*
X130627580Y-74588972D01*
X130627580Y-74588972D02*
X130579961Y-74493734D01*
X130579961Y-74493734D02*
X130532342Y-74446115D01*
X130532342Y-74446115D02*
X130437104Y-74398496D01*
X130437104Y-74398496D02*
X130294247Y-74398496D01*
X130294247Y-74398496D02*
X130199009Y-74446115D01*
X130199009Y-74446115D02*
X130151390Y-74493734D01*
X130151390Y-74493734D02*
X130103771Y-74588972D01*
X130103771Y-74588972D02*
X130103771Y-74969924D01*
X130151390Y-73969924D02*
X130151390Y-73636591D01*
X129627580Y-73493734D02*
X129627580Y-73969924D01*
X129627580Y-73969924D02*
X130627580Y-73969924D01*
X130627580Y-73969924D02*
X130627580Y-73493734D01*
%LPC*%
D11*
X121700000Y-63100000D03*
D12*
X121700000Y-65640000D03*
X121700000Y-68180000D03*
X121700000Y-70720000D03*
X121700000Y-73260000D03*
X121700000Y-75800000D03*
X121700000Y-78340000D03*
D13*
X127340000Y-92000000D03*
X137500000Y-92000000D03*
X124500000Y-91080000D03*
X124500000Y-80920000D03*
D14*
X122020850Y-87790000D03*
X122020850Y-82710000D03*
D11*
X139300000Y-63100000D03*
D12*
X139300000Y-65640000D03*
X139300000Y-68180000D03*
X139300000Y-70720000D03*
X139300000Y-73260000D03*
X139300000Y-75800000D03*
X139300000Y-78340000D03*
D13*
X124500000Y-68420000D03*
X124500000Y-78580000D03*
D15*
X127250000Y-76875000D03*
D16*
X133750000Y-76875000D03*
X127250000Y-81375000D03*
X133750000Y-81375000D03*
D14*
X138979150Y-82710000D03*
X138979150Y-87790000D03*
D15*
X127250000Y-69250000D03*
D16*
X133750000Y-69250000D03*
X127250000Y-73750000D03*
X133750000Y-73750000D03*
D13*
X125420000Y-63500000D03*
X135580000Y-63500000D03*
X136500000Y-89080000D03*
X136500000Y-78920000D03*
D15*
X127250000Y-84500000D03*
D16*
X133750000Y-84500000D03*
X127250000Y-89000000D03*
X133750000Y-89000000D03*
D13*
X136500000Y-66500000D03*
X136500000Y-76660000D03*
%LPD*%
M02*
