M48
; DRILL file {KiCad 9.0.1} date 2025-10-16T18:55:24-0400
; FORMAT={-:-/ absolute / metric / decimal}
; #@! TF.CreationDate,2025-10-16T18:55:24-04:00
; #@! TF.GenerationSoftware,Kicad,Pcbnew,9.0.1
; #@! TF.FileFunction,Plated,1,2,PTH
FMAT,2
METRIC
; #@! TA.AperFunction,Plated,PTH,ComponentDrill
T1C0.800
; #@! TA.AperFunction,Plated,PTH,ComponentDrill
T2C1.000
; #@! TA.AperFunction,Plated,PTH,ComponentDrill
T3C1.450
%
G90
G05
T1
X124.5Y-68.42
X124.5Y-78.58
X124.5Y-80.92
X124.5Y-91.08
X125.42Y-63.5
X127.34Y-92.0
X135.58Y-63.5
X136.5Y-66.5
X136.5Y-76.66
X136.5Y-78.92
X136.5Y-89.08
X137.5Y-92.0
T2
X121.7Y-63.1
X121.7Y-65.64
X121.7Y-68.18
X121.7Y-70.72
X121.7Y-73.26
X121.7Y-75.8
X121.7Y-78.34
X127.25Y-69.25
X127.25Y-73.75
X127.25Y-76.875
X127.25Y-81.375
X127.25Y-84.5
X127.25Y-89.0
X133.75Y-69.25
X133.75Y-73.75
X133.75Y-76.875
X133.75Y-81.375
X133.75Y-84.5
X133.75Y-89.0
X139.3Y-63.1
X139.3Y-65.64
X139.3Y-68.18
X139.3Y-70.72
X139.3Y-73.26
X139.3Y-75.8
X139.3Y-78.34
T3
X122.021Y-82.71
X122.021Y-87.79
X138.979Y-82.71
X138.979Y-87.79
M30
